<?xml version="1.0" encoding="utf-8"?>
<!-- Generator: Adobe Illustrator 21.1.0, SVG Export Plug-In . SVG Version: 6.00 Build 0)  -->
<svg version="1.1" id="Layer_1" xmlns="http://www.w3.org/2000/svg" xmlns:xlink="http://www.w3.org/1999/xlink" x="0px" y="0px"
	 viewBox="0 0 35 35" style="enable-background:new 0 0 35 35;" xml:space="preserve">
<style type="text/css">
	.st0{fill:#333333;}
	.st1{fill:none;stroke:#333333;stroke-miterlimit:10;}
	.st2{fill:none;stroke:#333333;stroke-linecap:round;stroke-miterlimit:10;}
	.st3{fill:none;stroke:#333333;stroke-linejoin:round;stroke-miterlimit:10;}
	.st4{fill:none;stroke:#333333;stroke-linecap:round;stroke-linejoin:round;stroke-miterlimit:10;}
	.st5{fill:#333333;stroke:#333333;stroke-miterlimit:10;}
	.st6{fill:#FFFFFF;}
</style>
<g>
	<path class="st0" d="M31.2,6.2v25.3h-28V6.2H31.2 M31.6,5.2H2.9c-0.4,0-0.6,0.3-0.6,0.6v26c0,0.4,0.3,0.6,0.6,0.6h28.7
		c0.4,0,0.6-0.3,0.6-0.6v-26C32.2,5.5,31.9,5.2,31.6,5.2L31.6,5.2z"/>
</g>
<circle class="st1" cx="17.2" cy="11.7" r="1.7"/>
<circle class="st1" cx="25.7" cy="11.7" r="1.7"/>
<circle class="st1" cx="8.7" cy="19.2" r="1.7"/>
<circle class="st1" cx="17.2" cy="19.2" r="1.7"/>
<circle class="st1" cx="25.7" cy="19.2" r="1.7"/>
<circle class="st1" cx="8.7" cy="26.7" r="1.7"/>
<circle class="st1" cx="17.2" cy="26.7" r="1.7"/>
<line class="st2" x1="25.7" y1="5.2" x2="25.7" y2="2.5"/>
<line class="st2" x1="8.7" y1="5.2" x2="8.7" y2="2.5"/>
</svg>
