<?xml version="1.0" encoding="utf-8"?>
<!-- Generator: Adobe Illustrator 21.1.0, SVG Export Plug-In . SVG Version: 6.00 Build 0)  -->
<svg version="1.1" id="Layer_1" xmlns="http://www.w3.org/2000/svg" xmlns:xlink="http://www.w3.org/1999/xlink" x="0px" y="0px"
	 viewBox="0 0 35 35" style="enable-background:new 0 0 35 35;" xml:space="preserve">
<style type="text/css">
	.st0{fill:#333333;}
	.st1{fill:none;stroke:#333333;stroke-miterlimit:10;}
	.st2{fill:none;stroke:#333333;stroke-linecap:round;stroke-miterlimit:10;}
	.st3{fill:none;stroke:#333333;stroke-linejoin:round;stroke-miterlimit:10;}
	.st4{fill:none;stroke:#333333;stroke-linecap:round;stroke-linejoin:round;stroke-miterlimit:10;}
	.st5{fill:#333333;stroke:#333333;stroke-miterlimit:10;}
	.st6{fill:#FFFFFF;}
</style>
<g>
	<g>
		<path class="st0" d="M17.5,2c5.7,0,10.4,4.7,10.4,10.4c0,10.4-8.1,18.2-10.4,20.3c-2.3-2-10.4-9.9-10.4-20.3
			C7.1,6.7,11.8,2,17.5,2 M17.5,1C11.2,1,6.1,6.1,6.1,12.4C6.1,25.1,17.5,34,17.5,34s11.4-8.9,11.4-21.6C28.9,6.1,23.8,1,17.5,1
			L17.5,1z"/>
	</g>
	<g>
		<path class="st0" d="M17.5,5.9c3.6,0,6.5,2.9,6.5,6.5s-2.9,6.5-6.5,6.5S11,16,11,12.4S13.9,5.9,17.5,5.9 M17.5,4.9
			c-4.1,0-7.5,3.4-7.5,7.5s3.4,7.5,7.5,7.5s7.5-3.4,7.5-7.5S21.6,4.9,17.5,4.9L17.5,4.9z"/>
	</g>
</g>
</svg>
