<?xml version="1.0" encoding="utf-8"?>
<!-- Generator: Adobe Illustrator 21.1.0, SVG Export Plug-In . SVG Version: 6.00 Build 0)  -->
<svg version="1.1" id="Layer_1" xmlns="http://www.w3.org/2000/svg" xmlns:xlink="http://www.w3.org/1999/xlink" x="0px" y="0px"
	 viewBox="0 0 35 35" style="enable-background:new 0 0 35 35;" xml:space="preserve">
<style type="text/css">
	.st0{fill:#333333;}
	.st1{fill:none;stroke:#333333;stroke-miterlimit:10;}
	.st2{fill:none;stroke:#333333;stroke-linecap:round;stroke-miterlimit:10;}
	.st3{fill:none;stroke:#333333;stroke-linejoin:round;stroke-miterlimit:10;}
	.st4{fill:none;stroke:#333333;stroke-linecap:round;stroke-linejoin:round;stroke-miterlimit:10;}
	.st5{fill:#333333;stroke:#333333;stroke-miterlimit:10;}
	.st6{fill:#FFFFFF;}
</style>
<g>
	<g>
		<path class="st0" d="M17.5,3.5c7.7,0,14,6.3,14,14s-6.3,14-14,14s-14-6.3-14-14S9.8,3.5,17.5,3.5 M17.5,2.5c-8.3,0-15,6.7-15,15
			s6.7,15,15,15s15-6.7,15-15S25.8,2.5,17.5,2.5L17.5,2.5z"/>
	</g>
</g>
<g>
	<path class="st4" d="M20.6,13.2c0-1.7-1.4-3.1-3.1-3.1s-3.1,1.4-3.1,3.1c0,1,0.5,1.8,1.2,2.4c1,0.9,2.9,2.9,3.8,3.8
		c0.6,0.6,1.1,1.4,1.1,2.3c0,1.7-1.4,3.1-3.1,3.1s-3.1-1.4-3.1-3.1"/>
	<line class="st4" x1="17.5" y1="10.1" x2="17.5" y2="8.7"/>
	<line class="st4" x1="17.5" y1="26.3" x2="17.5" y2="24.9"/>
</g>
</svg>
