<?xml version="1.0" encoding="utf-8"?>
<!-- Generator: Adobe Illustrator 21.1.0, SVG Export Plug-In . SVG Version: 6.00 Build 0)  -->
<svg version="1.1" id="Layer_1" xmlns="http://www.w3.org/2000/svg" xmlns:xlink="http://www.w3.org/1999/xlink" x="0px" y="0px"
	 viewBox="0 0 40.8 35" style="enable-background:new 0 0 40.8 35;" xml:space="preserve">
<style type="text/css">
	.st0{fill:#333333;}
	.st1{fill:none;stroke:#333333;stroke-miterlimit:10;}
	.st2{fill:none;stroke:#333333;stroke-linecap:round;stroke-miterlimit:10;}
	.st3{fill:none;stroke:#333333;stroke-linejoin:round;stroke-miterlimit:10;}
	.st4{fill:none;stroke:#333333;stroke-linecap:round;stroke-linejoin:round;stroke-miterlimit:10;}
	.st5{fill:#333333;stroke:#333333;stroke-miterlimit:10;}
	.st6{fill:#FFFFFF;}
</style>
<g>
	<g>
		<path class="st0" d="M16.6,3.5c7.7,0,14,6.3,14,14s-6.3,14-14,14s-14-6.3-14-14S8.9,3.5,16.6,3.5 M16.6,2.5c-8.3,0-15,6.7-15,15
			s6.7,15,15,15s15-6.7,15-15S24.9,2.5,16.6,2.5L16.6,2.5z"/>
	</g>
</g>
<g>
	<g>
		<path class="st0" d="M16.6,11c3.6,0,6.5,2.9,6.5,6.5S20.2,24,16.6,24s-6.5-2.9-6.5-6.5S13,11,16.6,11 M16.6,10
			c-4.1,0-7.5,3.4-7.5,7.5s3.4,7.5,7.5,7.5s7.5-3.4,7.5-7.5S20.7,10,16.6,10L16.6,10z"/>
	</g>
</g>
<line class="st4" x1="16.6" y1="17.5" x2="35.7" y2="17.5"/>
<line class="st4" x1="33" y1="17.5" x2="35.7" y2="14.8"/>
<line class="st4" x1="35.7" y1="17.5" x2="38.4" y2="14.8"/>
<line class="st4" x1="38.4" y1="20.1" x2="35.7" y2="17.4"/>
<line class="st4" x1="35.7" y1="20.1" x2="33" y2="17.4"/>
</svg>
