<?xml version="1.0" encoding="UTF-8"?>
<svg width="62px" height="62px" viewBox="0 0 62 62" version="1.1" xmlns="http://www.w3.org/2000/svg" xmlns:xlink="http://www.w3.org/1999/xlink">
    <!-- Generator: Sketch 49 (51002) - http://www.bohemiancoding.com/sketch -->
    <title>Page 1</title>
    <desc>Created with Sketch.</desc>
    <defs></defs>
    <g id="teacher-search-page" stroke="none" stroke-width="1" fill="none" fill-rule="evenodd">
        <g id="Desktop-teacher_search_NEW" transform="translate(-999.000000, -170.000000)">
            <g id="Group-4-Copy" transform="translate(943.000000, 147.000000)">
                <g id="Group-Copy">
                    <g id="Page-1" transform="translate(57.000000, 24.000000)">
                        <path d="M30,0.461538462 C46.2873846,0.461538462 59.5384615,13.7126154 59.5384615,30 C59.5384615,46.2873846 46.2873846,59.5384615 30,59.5384615 C13.7126154,59.5384615 0.461538462,46.2873846 0.461538462,30 C0.461538462,13.7126154 13.7126154,0.461538462 30,0.461538462" id="Path" stroke="#333333"></path>
                        <path d="M14.2007385,27.3512615 C15.8819692,34.8749538 22.8616615,40.3986462 31.0192,39.8017231 C38.9041231,39.2251077 45.2708923,32.7992615 45.7804308,24.9094154 C46.3835077,15.5912615 39.0038154,7.84603077 29.8155077,7.84603077 C28.8093538,7.84603077 27.8259692,7.93895385 26.8715077,8.11618462 C26.6918154,8.15003077 26.5336615,8.25772308 26.4327385,8.41095385 L14.2979692,26.8318769 C14.1970462,26.9844923 14.1607385,27.1728 14.2007385,27.3512615 Z" id="Stroke-3" stroke="#333333"></path>
                        <polyline id="Stroke-5" stroke="#333333" stroke-linecap="round" stroke-linejoin="round" points="22.6153846 38.6153846 22.6153846 52.7692308 30 46 37.3846154 52.7692308 37.3846154 38.6153846"></polyline>
                        <path d="M34.3148923,18.3076923 C36.2379692,18.3076923 38.3075077,19.648 38.3075077,22.5913846 C38.3075077,24.3310769 36.9179692,26.5458462 34.2902769,28.9969231 C32.4878154,30.6775385 30.6287385,31.9618462 29.9985846,32.3821538 C27.4865846,30.7249231 21.6921231,26.152 21.6921231,22.5913846 C21.6921231,19.648 23.7622769,18.3076923 25.6853538,18.3076923 C26.9585846,18.3076923 28.1875077,18.9015385 29.0570462,19.9366154 L29.9998154,21.0596923 L30.9425846,19.936 C31.8102769,18.9009231 33.0398154,18.3076923 34.3148923,18.3076923" id="Path" stroke="#333333"></path>
                        <g id="Group-12" transform="translate(14.000000, 8.461538)">
                            <path d="M0.442892308,19.2364923 C7.73396923,17.7448 13.2182769,11.2937231 13.2182769,3.56141538 C13.2182769,2.4568 13.1062769,1.37864615 12.8927385,0.337415385" id="Fill-9" fill="#FFFFFF"></path>
                            <path d="M0.442892308,19.2364923 C7.73396923,17.7448 13.2182769,11.2937231 13.2182769,3.56141538 C13.2182769,2.4568 13.1062769,1.37864615 12.8927385,0.337415385" id="Stroke-11" stroke="#333333" stroke-linecap="round"></path>
                        </g>
                    </g>
                </g>
            </g>
        </g>
    </g>
</svg>