<?xml version="1.0" encoding="utf-8"?>
<!-- Generator: Adobe Illustrator 21.1.0, SVG Export Plug-In . SVG Version: 6.00 Build 0)  -->
<svg version="1.1" id="Layer_1" xmlns="http://www.w3.org/2000/svg" xmlns:xlink="http://www.w3.org/1999/xlink" x="0px" y="0px"
	 viewBox="0 0 35 35" style="enable-background:new 0 0 35 35;" xml:space="preserve">
<style type="text/css">
	.st0{fill:#ebebeb;}
	.st1{fill:none;stroke:#333;stroke-miterlimit:10;}
	.st2{fill:none;stroke:#333;stroke-linecap:round;stroke-miterlimit:10;}
	.st3{fill:none;stroke:#333;stroke-linejoin:round;stroke-miterlimit:10;}
	.st4{fill:none;stroke:#333;stroke-linecap:round;stroke-linejoin:round;stroke-miterlimit:10;}
	.st5{fill:#333;stroke:#333;stroke-miterlimit:10;}
	.st6{fill:#FFFFFF;}
</style>
<g>
	<g>
		<g>
			<path class="st5" d="M27.8,33c-0.3,0-0.5-0.2-0.5-0.5V12.4c0-0.3,0.2-0.5,0.5-0.5s0.5,0.2,0.5,0.5v20.1
				C28.3,32.8,28.1,33,27.8,33z"/>
		</g>
		<g>
			<path class="st5" d="M17.5,18.4c0.2,0,0.3,0,0.5,0.1v-15c0-0.3-0.2-0.5-0.5-0.5S17,3.1,17,3.4v15C17.2,18.4,17.3,18.4,17.5,18.4z
				"/>
			<path class="st5" d="M17.5,27.2c-0.2,0-0.3,0-0.5-0.1v5.4c0,0.3,0.2,0.5,0.5,0.5s0.5-0.2,0.5-0.5v-5.4
				C17.8,27.1,17.7,27.2,17.5,27.2z"/>
		</g>
		<g>
			<g>
				<path class="st5" d="M27.8,3.5c2.1,0,3.9,1.7,3.9,3.9s-1.7,3.9-3.9,3.9S24,9.5,24,7.4S25.7,3.5,27.8,3.5 M27.8,2.5
					c-2.7,0-4.9,2.2-4.9,4.9s2.2,4.9,4.9,4.9s4.9-2.2,4.9-4.9S30.5,2.5,27.8,2.5L27.8,2.5z"/>
			</g>
		</g>
		<g>
			<g>
				<path class="st5" d="M17.5,18.9c2.1,0,3.9,1.7,3.9,3.9c0,2.1-1.7,3.9-3.9,3.9s-3.9-1.7-3.9-3.9C13.6,20.6,15.4,18.9,17.5,18.9
					 M17.5,17.9c-2.7,0-4.9,2.2-4.9,4.9c0,2.7,2.2,4.9,4.9,4.9s4.9-2.2,4.9-4.9C22.4,20.1,20.2,17.9,17.5,17.9L17.5,17.9z"/>
			</g>
		</g>
		<g>
			<g>
				<path class="st5" d="M7.2,9.9c2.1,0,3.9,1.7,3.9,3.9s-1.7,3.9-3.9,3.9s-3.9-1.7-3.9-3.9S5,9.9,7.2,9.9 M7.2,8.9
					c-2.7,0-4.9,2.2-4.9,4.9s2.2,4.9,4.9,4.9s4.9-2.2,4.9-4.9S9.9,8.9,7.2,8.9L7.2,8.9z"/>
			</g>
		</g>
		<g>
			<path class="st5" d="M7.2,9.4c0.2,0,0.3,0,0.5,0.1v-6c0-0.3-0.2-0.5-0.5-0.5S6.7,3.1,6.7,3.4v6C6.8,9.4,7,9.4,7.2,9.4z"/>
			<path class="st5" d="M7.2,18.2c-0.2,0-0.3,0-0.5-0.1v14.4c0,0.3,0.2,0.5,0.5,0.5s0.5-0.2,0.5-0.5V18.1
				C7.5,18.1,7.3,18.2,7.2,18.2z"/>
		</g>
	</g>
</g>
</svg>
