<?xml version="1.0" encoding="utf-8"?>
<!-- Generator: Adobe Illustrator 19.0.1, SVG Export Plug-In . SVG Version: 6.00 Build 0)  -->
<svg version="1.1" id="Layer_1" xmlns="http://www.w3.org/2000/svg" xmlns:xlink="http://www.w3.org/1999/xlink" x="0px" y="0px"
	 viewBox="0 0 34 34" style="enable-background:new 0 0 34 34;" xml:space="preserve">
<style type="text/css">
	.st0{fill:#FF4338;}
	.st1{fill:#FFFFFF;}
	.st2{fill:none;}
</style>
<g>
	<path class="st0" d="M17,5C5,5,5,9.2,5,17c0,7.8,0,12,12,12c0.1,0,0.2,0,0.3,0l1.9,1.1l5.3,3.1V28C29,26.4,29,22.6,29,17
		C29,9.2,29,5,17,5L17,5z"/>
	<path class="st1" d="M26.7,12.1c-0.2-1.2-0.4-2.1-0.9-2.7c-0.2-0.3-0.5-0.6-0.9-0.8c-0.4-0.3-1-0.5-1.6-0.7
		c-0.7-0.2-1.6-0.4-2.6-0.5c-1.1-0.1-2.3-0.2-3.7-0.2s-2.7,0.1-3.7,0.2c-1,0.1-1.9,0.3-2.6,0.5C10.1,8,9.5,8.3,9.1,8.6
		C8.8,8.8,8.5,9.1,8.2,9.4c-0.5,0.6-0.7,1.5-0.9,2.7c-0.2,1.4-0.2,3-0.2,4.9v0c0,1.9,0,3.5,0.2,4.9c0.2,1.2,0.4,2.1,0.9,2.7
		c0.2,0.3,0.5,0.6,0.9,0.8c0.4,0.3,1,0.5,1.6,0.7c0.7,0.2,1.6,0.4,2.6,0.5c1.1,0.1,2.3,0.2,3.7,0.2c0.1,0,0.2,0,0.3,0l0.6,0l0.5,0.3
		l1.9,1.1l0,0l0,0l2,1.2V28v-1.5l1.4-0.5c0.8-0.3,1.4-0.6,1.8-1.1c0.4-0.4,0.6-0.9,0.8-1.5c0.2-0.7,0.3-1.5,0.4-2.6
		c0.1-1.1,0.1-2.4,0.1-3.7C26.8,15.1,26.8,13.5,26.7,12.1z M14.8,11.7c0.6,0,1.1,0.5,1.1,1.1c0,0.6-0.5,1.1-1.1,1.1
		c-0.6,0-1.1-0.5-1.1-1.1C13.7,12.2,14.2,11.7,14.8,11.7z M15.9,21.2c0,0.6-0.5,1.1-1.1,1.1c-0.6,0-1.1-0.5-1.1-1.1v-5.1
		c0-0.6,0.5-1.1,1.1-1.1c0.6,0,1.1,0.5,1.1,1.1V21.2z M19.2,11.7c0.6,0,1.1,0.5,1.1,1.1c0,0.6-0.5,1.1-1.1,1.1
		c-0.6,0-1.1-0.5-1.1-1.1C18.1,12.2,18.6,11.7,19.2,11.7z M20.3,21.2c0,0.6-0.5,1.1-1.1,1.1c-0.6,0-1.1-0.5-1.1-1.1v-5.1
		c0-0.6,0.5-1.1,1.1-1.1c0.6,0,1.1,0.5,1.1,1.1V21.2z"/>
</g>
<rect x="0" y="0" class="st2" width="34" height="34"/>
</svg>
