<?xml version="1.0" encoding="utf-8"?>
<!-- Generator: Adobe Illustrator 21.1.0, SVG Export Plug-In . SVG Version: 6.00 Build 0)  -->
<svg version="1.1" id="Layer_1" xmlns="http://www.w3.org/2000/svg" xmlns:xlink="http://www.w3.org/1999/xlink" x="0px" y="0px"
	 viewBox="0 0 100 100" style="enable-background:new 0 0 100 100;" xml:space="preserve">
<style type="text/css">
	.st0{fill:url(#SVGID_1_);stroke:#4C9BCF;stroke-miterlimit:10;}
	.st1{opacity:0.2;}
	.st2{fill:none;stroke:#231F20;stroke-width:0.1;stroke-miterlimit:10;}
	.st3{fill:#231F20;}
	.st4{fill:none;stroke:#231F20;stroke-width:2;stroke-miterlimit:10;}
	.st5{fill:none;stroke:#231F20;stroke-width:2;stroke-linecap:round;stroke-miterlimit:10;}
	.st6{fill:none;stroke:#231F20;stroke-width:2;stroke-linejoin:round;stroke-miterlimit:10;}
	.st7{fill:none;stroke:#231F20;stroke-width:2;stroke-linecap:round;stroke-linejoin:round;stroke-miterlimit:10;}
	.st8{fill:#757575;}
	.st9{fill:none;stroke:#1D1D1B;stroke-width:2;stroke-linecap:round;stroke-miterlimit:10;}
	.st10{fill:#FFFFFF;}
	.st11{fill:none;stroke:#1D1D1B;stroke-width:2;stroke-miterlimit:10;}
	.st12{fill:#1D1D1B;}
	.st13{clip-path:url(#SVGID_3_);fill:url(#SVGID_4_);}
	.st14{clip-path:url(#SVGID_6_);fill:url(#SVGID_7_);}
	.st15{clip-path:url(#SVGID_9_);fill:url(#SVGID_10_);}
	.st16{clip-path:url(#SVGID_12_);fill:url(#SVGID_13_);}
	.st17{clip-path:url(#SVGID_15_);fill:url(#SVGID_16_);}
	.st18{clip-path:url(#SVGID_18_);fill:url(#SVGID_19_);}
	.st19{clip-path:url(#SVGID_21_);fill:url(#SVGID_22_);}
	.st20{clip-path:url(#SVGID_24_);fill:url(#SVGID_25_);}
	.st21{clip-path:url(#SVGID_27_);fill:url(#SVGID_28_);}
	.st22{clip-path:url(#SVGID_30_);fill:url(#SVGID_31_);}
	.st23{clip-path:url(#SVGID_33_);fill:url(#SVGID_34_);}
	.st24{clip-path:url(#SVGID_36_);fill:url(#SVGID_37_);}
	.st25{clip-path:url(#SVGID_39_);fill:url(#SVGID_40_);}
	.st26{clip-path:url(#SVGID_42_);fill:url(#SVGID_43_);}
	.st27{clip-path:url(#SVGID_45_);fill:url(#SVGID_46_);}
	.st28{clip-path:url(#SVGID_48_);fill:url(#SVGID_49_);}
	.st29{clip-path:url(#SVGID_51_);fill:url(#SVGID_52_);}
	.st30{clip-path:url(#SVGID_54_);fill:url(#SVGID_55_);}
	.st31{clip-path:url(#SVGID_57_);fill:url(#SVGID_58_);}
	.st32{clip-path:url(#SVGID_60_);fill:url(#SVGID_61_);}
	.st33{clip-path:url(#SVGID_63_);fill:url(#SVGID_64_);}
	.st34{clip-path:url(#SVGID_66_);fill:url(#SVGID_67_);}
	.st35{clip-path:url(#SVGID_69_);fill:url(#SVGID_70_);}
	.st36{clip-path:url(#SVGID_72_);fill:url(#SVGID_73_);}
	.st37{clip-path:url(#SVGID_75_);fill:url(#SVGID_76_);}
	.st38{clip-path:url(#SVGID_78_);fill:url(#SVGID_79_);}
	.st39{clip-path:url(#SVGID_81_);fill:url(#SVGID_82_);}
	.st40{fill:#FFFFFF;stroke:#231F20;stroke-width:2;stroke-linecap:round;stroke-miterlimit:10;}
	.st41{clip-path:url(#SVGID_84_);fill:url(#SVGID_85_);}
	.st42{clip-path:url(#SVGID_87_);fill:url(#SVGID_88_);}
	.st43{fill:none;stroke:#000000;stroke-width:2;stroke-linecap:round;stroke-miterlimit:10;}
	.st44{fill:#FFFFFF;stroke:#231F20;stroke-width:2;stroke-miterlimit:10;}
	.st45{clip-path:url(#SVGID_90_);fill:url(#SVGID_91_);}
	.st46{clip-path:url(#SVGID_93_);fill:url(#SVGID_94_);}
	.st47{clip-path:url(#SVGID_96_);fill:url(#SVGID_97_);}
	.st48{clip-path:url(#SVGID_99_);fill:url(#SVGID_100_);}
	.st49{clip-path:url(#SVGID_102_);fill:url(#SVGID_103_);}
	.st50{fill:none;}
	.st51{fill:none;stroke:#000000;stroke-width:2;stroke-miterlimit:10;}
	.st52{clip-path:url(#SVGID_105_);fill:url(#SVGID_106_);}
	.st53{clip-path:url(#SVGID_108_);fill:url(#SVGID_109_);}
	.st54{clip-path:url(#SVGID_111_);fill:url(#SVGID_112_);}
	.st55{clip-path:url(#SVGID_114_);fill:url(#SVGID_115_);}
	.st56{clip-path:url(#SVGID_117_);fill:url(#SVGID_118_);}
	.st57{clip-path:url(#SVGID_120_);fill:url(#SVGID_121_);}
	.st58{clip-path:url(#SVGID_123_);fill:url(#SVGID_124_);}
	.st59{clip-path:url(#SVGID_126_);fill:url(#SVGID_127_);}
	.st60{clip-path:url(#SVGID_129_);fill:url(#SVGID_130_);}
	.st61{clip-path:url(#SVGID_132_);fill:url(#SVGID_133_);}
	.st62{clip-path:url(#SVGID_135_);fill:url(#SVGID_136_);}
	.st63{clip-path:url(#SVGID_138_);fill:url(#SVGID_139_);}
	.st64{clip-path:url(#SVGID_141_);fill:url(#SVGID_142_);}
	.st65{clip-path:url(#SVGID_144_);fill:url(#SVGID_145_);}
	.st66{clip-path:url(#SVGID_147_);fill:url(#SVGID_148_);}
	.st67{clip-path:url(#SVGID_150_);fill:url(#SVGID_151_);}
	.st68{clip-path:url(#SVGID_153_);fill:url(#SVGID_154_);}
	.st69{clip-path:url(#SVGID_156_);fill:url(#SVGID_157_);}
	.st70{fill:none;stroke:#757575;stroke-width:1.5;stroke-linecap:round;stroke-miterlimit:10;}
	.st71{clip-path:url(#SVGID_159_);fill:url(#SVGID_160_);}
	.st72{clip-path:url(#SVGID_162_);fill:url(#SVGID_163_);}
	.st73{clip-path:url(#SVGID_165_);fill:url(#SVGID_166_);}
	.st74{clip-path:url(#SVGID_168_);fill:url(#SVGID_169_);}
	.st75{clip-path:url(#SVGID_171_);fill:url(#SVGID_172_);}
	.st76{clip-path:url(#SVGID_174_);fill:url(#SVGID_175_);}
	.st77{clip-path:url(#SVGID_177_);fill:url(#SVGID_178_);stroke:#4C9BCF;stroke-miterlimit:10;}
	.st78{clip-path:url(#SVGID_180_);fill:url(#SVGID_181_);stroke:#4C9BCF;stroke-miterlimit:10;}
	.st79{fill:#333333;}
	.st80{fill:#0071B9;}
	.st81{fill:none;stroke:#0071B9;stroke-width:2;stroke-linecap:round;stroke-miterlimit:10;}
</style>
<g>
	<circle class="st8" cx="69" cy="73" r="1"/>
</g>
<g>
	<circle class="st8" cx="69" cy="82" r="1"/>
</g>
<g>
	<circle class="st79" cx="69" cy="91" r="1"/>
</g>
<path class="st8" d="M65,28c-6.9,0-11,3.2-11,15.2C54,51.5,59.6,58,65,58s11-6.7,11-15.1C76,31.2,71.9,28,65,28z M73,35.1
	c0.3,0.8,0.5,1.7,0.7,2.8c-0.8-0.3-1.6-0.7-2.4-1.1C71.9,36.3,72.5,35.7,73,35.1z M65,30c2.7,0,5.4,0.4,7.1,3.1
	c-3.1,3.7-7.7,5.9-12.6,5.9c-1.1,0-2.2-0.1-3.2-0.3C57.3,30.8,61.1,30,65,30z M65,56c-4.2,0-9-5.5-9-12.8c0-0.9,0-1.7,0.1-2.5
	c1.1,0.2,2.3,0.3,3.4,0.3c3.6,0,7.1-1,10-2.9c1.4,0.9,2.8,1.6,4.4,2.1C74,41,74,41.9,74,42.9C74,50.3,69.2,56,65,56z"/>
<path class="st8" d="M50,0C22.4,0,0,22.4,0,50c0,26.8,21.2,48.7,47.7,49.9c0.1,0,0.2,0.1,0.3,0.1c0.1,0,0.1,0,0.2,0
	c0.6,0,1.2,0,1.8,0c27.6,0,50-22.4,50-50C100,22.4,77.6,0,50,0z M16.2,16H44v41H2.5C2.2,54.7,2,52.4,2,50C2,36.7,7.4,24.7,16.2,16z
	 M20,67c0.6,0,1,0.4,1,1s-0.4,1-1,1s-1-0.4-1-1S19.4,67,20,67z M2.9,59H19v6.2c-1.2,0.4-2,1.5-2,2.8c0,1.7,1.3,3,3,3s3-1.3,3-3
	c0-1.3-0.8-2.4-2-2.8V59h24c0.6,0,1-0.4,1-1V15c0-0.6-0.4-1-1-1H18.3C26.8,6.5,37.9,2,50,2c26.5,0,48,21.5,48,48
	c0,9.8-2.9,18.8-8,26.4C87.7,69.6,82.4,63,65,63c0,0,0,0,0,0c0,0,0,0,0,0c-14,0-27,3.2-27,26.8v6.7C20,91.9,6.3,77.3,2.9,59z M49,98
	V82c0-0.6-0.4-1-1-1s-1,0.4-1,1v15.9c-2.4-0.1-5-0.5-7-0.9v-7.1c0-20.1,9.6-24.6,24-24.8v30.9c-4.4,1.4-9.1,2.1-14,2.1
	C49.7,98,49.3,98,49,98z M83,84.8V82c0-0.6-0.4-1-1-1s-1,0.4-1,1v4.6c-4,3.7-9.5,6.7-15,8.7V65c9.8,0.1,19.1,2,22.5,13.2
	c0,0.1,0,0.1,0.1,0.2C86.9,80.7,85,82.8,83,84.8z"/>
<g>
	<path class="st8" d="M38,26H25c-0.6,0-1-0.4-1-1s0.4-1,1-1h13c0.6,0,1,0.4,1,1S38.6,26,38,26z"/>
</g>
<g>
	<path class="st8" d="M38,38H25c-0.6,0-1-0.4-1-1s0.4-1,1-1h13c0.6,0,1,0.4,1,1S38.6,38,38,38z"/>
</g>
<g>
	<path class="st8" d="M38,50H25c-0.6,0-1-0.4-1-1s0.4-1,1-1h13c0.6,0,1,0.4,1,1S38.6,50,38,50z"/>
</g>
<g>
	<path class="st8" d="M16.1,40.8c0,0-0.1,0-0.1,0c-0.4,0-0.8-0.3-1-0.6l-1.7-2.6c-0.3-0.5-0.2-1.1,0.3-1.4c0.5-0.3,1.1-0.2,1.4,0.3
		l1.3,2l4.1-4.1c0.4-0.4,1-0.4,1.4,0s0.4,1,0,1.4l-4.6,4.6C16.8,40.6,16.4,40.8,16.1,40.8z"/>
</g>
<g>
	<path class="st8" d="M19.5,29h-5c-0.8,0-1.5-0.7-1.5-1.5v-5c0-0.8,0.7-1.5,1.5-1.5h5c0.8,0,1.5,0.7,1.5,1.5v5
		C21,28.3,20.3,29,19.5,29z M15,27h4v-4h-4V27z"/>
</g>
<g>
	<path class="st8" d="M19.5,53h-5c-0.8,0-1.5-0.7-1.5-1.5v-5c0-0.8,0.7-1.5,1.5-1.5h5c0.8,0,1.5,0.7,1.5,1.5v5
		C21,52.3,20.3,53,19.5,53z M15,51h4v-4h-4V51z"/>
</g>
</svg>
