<?xml version="1.0" encoding="utf-8"?>
<!-- Generator: Adobe Illustrator 21.1.0, SVG Export Plug-In . SVG Version: 6.00 Build 0)  -->
<svg version="1.1" id="Layer_1" xmlns="http://www.w3.org/2000/svg" xmlns:xlink="http://www.w3.org/1999/xlink" x="0px" y="0px"
	 viewBox="0 0 100 100" style="enable-background:new 0 0 100 100;" xml:space="preserve">
<style type="text/css">
	.st0{fill:url(#SVGID_1_);stroke:#4C9BCF;stroke-miterlimit:10;}
	.st1{opacity:0.2;}
	.st2{fill:none;stroke:#231F20;stroke-width:0.1;stroke-miterlimit:10;}
	.st3{fill:#231F20;}
	.st4{fill:none;stroke:#231F20;stroke-width:2;stroke-miterlimit:10;}
	.st5{fill:none;stroke:#231F20;stroke-width:2;stroke-linecap:round;stroke-miterlimit:10;}
	.st6{fill:none;stroke:#231F20;stroke-width:2;stroke-linejoin:round;stroke-miterlimit:10;}
	.st7{fill:none;stroke:#231F20;stroke-width:2;stroke-linecap:round;stroke-linejoin:round;stroke-miterlimit:10;}
	.st8{fill:#757575;}
	.st9{fill:none;stroke:#1D1D1B;stroke-width:2;stroke-linecap:round;stroke-miterlimit:10;}
	.st10{fill:#FFFFFF;}
	.st11{fill:none;stroke:#1D1D1B;stroke-width:2;stroke-miterlimit:10;}
	.st12{fill:#1D1D1B;}
	.st13{clip-path:url(#SVGID_3_);fill:url(#SVGID_4_);}
	.st14{clip-path:url(#SVGID_6_);fill:url(#SVGID_7_);}
	.st15{clip-path:url(#SVGID_9_);fill:url(#SVGID_10_);}
	.st16{clip-path:url(#SVGID_12_);fill:url(#SVGID_13_);}
	.st17{clip-path:url(#SVGID_15_);fill:url(#SVGID_16_);}
	.st18{clip-path:url(#SVGID_18_);fill:url(#SVGID_19_);}
	.st19{clip-path:url(#SVGID_21_);fill:url(#SVGID_22_);}
	.st20{clip-path:url(#SVGID_24_);fill:url(#SVGID_25_);}
	.st21{clip-path:url(#SVGID_27_);fill:url(#SVGID_28_);}
	.st22{clip-path:url(#SVGID_30_);fill:url(#SVGID_31_);}
	.st23{clip-path:url(#SVGID_33_);fill:url(#SVGID_34_);}
	.st24{clip-path:url(#SVGID_36_);fill:url(#SVGID_37_);}
	.st25{clip-path:url(#SVGID_39_);fill:url(#SVGID_40_);}
	.st26{clip-path:url(#SVGID_42_);fill:url(#SVGID_43_);}
	.st27{clip-path:url(#SVGID_45_);fill:url(#SVGID_46_);}
	.st28{clip-path:url(#SVGID_48_);fill:url(#SVGID_49_);}
	.st29{clip-path:url(#SVGID_51_);fill:url(#SVGID_52_);}
	.st30{clip-path:url(#SVGID_54_);fill:url(#SVGID_55_);}
	.st31{clip-path:url(#SVGID_57_);fill:url(#SVGID_58_);}
	.st32{clip-path:url(#SVGID_60_);fill:url(#SVGID_61_);}
	.st33{clip-path:url(#SVGID_63_);fill:url(#SVGID_64_);}
	.st34{clip-path:url(#SVGID_66_);fill:url(#SVGID_67_);}
	.st35{clip-path:url(#SVGID_69_);fill:url(#SVGID_70_);}
	.st36{clip-path:url(#SVGID_72_);fill:url(#SVGID_73_);}
	.st37{clip-path:url(#SVGID_75_);fill:url(#SVGID_76_);}
	.st38{clip-path:url(#SVGID_78_);fill:url(#SVGID_79_);}
	.st39{clip-path:url(#SVGID_81_);fill:url(#SVGID_82_);}
	.st40{fill:#FFFFFF;stroke:#231F20;stroke-width:2;stroke-linecap:round;stroke-miterlimit:10;}
	.st41{clip-path:url(#SVGID_84_);fill:url(#SVGID_85_);}
	.st42{clip-path:url(#SVGID_87_);fill:url(#SVGID_88_);}
	.st43{fill:none;stroke:#000000;stroke-width:2;stroke-linecap:round;stroke-miterlimit:10;}
	.st44{fill:#FFFFFF;stroke:#231F20;stroke-width:2;stroke-miterlimit:10;}
	.st45{clip-path:url(#SVGID_90_);fill:url(#SVGID_91_);}
	.st46{clip-path:url(#SVGID_93_);fill:url(#SVGID_94_);}
	.st47{clip-path:url(#SVGID_96_);fill:url(#SVGID_97_);}
	.st48{clip-path:url(#SVGID_99_);fill:url(#SVGID_100_);}
	.st49{clip-path:url(#SVGID_102_);fill:url(#SVGID_103_);}
	.st50{fill:none;}
	.st51{fill:none;stroke:#000000;stroke-width:2;stroke-miterlimit:10;}
	.st52{clip-path:url(#SVGID_105_);fill:url(#SVGID_106_);}
	.st53{clip-path:url(#SVGID_108_);fill:url(#SVGID_109_);}
	.st54{clip-path:url(#SVGID_111_);fill:url(#SVGID_112_);}
	.st55{clip-path:url(#SVGID_114_);fill:url(#SVGID_115_);}
	.st56{clip-path:url(#SVGID_117_);fill:url(#SVGID_118_);}
	.st57{clip-path:url(#SVGID_120_);fill:url(#SVGID_121_);}
	.st58{clip-path:url(#SVGID_123_);fill:url(#SVGID_124_);}
	.st59{clip-path:url(#SVGID_126_);fill:url(#SVGID_127_);}
	.st60{clip-path:url(#SVGID_129_);fill:url(#SVGID_130_);}
	.st61{clip-path:url(#SVGID_132_);fill:url(#SVGID_133_);}
	.st62{clip-path:url(#SVGID_135_);fill:url(#SVGID_136_);}
	.st63{clip-path:url(#SVGID_138_);fill:url(#SVGID_139_);}
	.st64{clip-path:url(#SVGID_141_);fill:url(#SVGID_142_);}
	.st65{clip-path:url(#SVGID_144_);fill:url(#SVGID_145_);}
	.st66{clip-path:url(#SVGID_147_);fill:url(#SVGID_148_);}
	.st67{clip-path:url(#SVGID_150_);fill:url(#SVGID_151_);}
	.st68{clip-path:url(#SVGID_153_);fill:url(#SVGID_154_);}
	.st69{clip-path:url(#SVGID_156_);fill:url(#SVGID_157_);}
	.st70{fill:none;stroke:#757575;stroke-width:1.5;stroke-linecap:round;stroke-miterlimit:10;}
	.st71{clip-path:url(#SVGID_159_);fill:url(#SVGID_160_);}
	.st72{clip-path:url(#SVGID_162_);fill:url(#SVGID_163_);}
	.st73{clip-path:url(#SVGID_165_);fill:url(#SVGID_166_);}
	.st74{clip-path:url(#SVGID_168_);fill:url(#SVGID_169_);}
	.st75{clip-path:url(#SVGID_171_);fill:url(#SVGID_172_);}
	.st76{clip-path:url(#SVGID_174_);fill:url(#SVGID_175_);}
	.st77{clip-path:url(#SVGID_177_);fill:url(#SVGID_178_);stroke:#4C9BCF;stroke-miterlimit:10;}
	.st78{clip-path:url(#SVGID_180_);fill:url(#SVGID_181_);stroke:#4C9BCF;stroke-miterlimit:10;}
	.st79{fill:#333333;}
	.st80{fill:#0071B9;}
	.st81{fill:none;stroke:#0071B9;stroke-width:2;stroke-linecap:round;stroke-miterlimit:10;}
</style>
<path class="st8" d="M49,17c-6.9,0-11,3.2-11,15.2C38,40.5,43.6,47,49,47s11-6.7,11-15.1C60,20.2,55.9,17,49,17z M57,24.1
	c0.3,0.8,0.5,1.7,0.7,2.8c-0.8-0.3-1.6-0.7-2.4-1.1C55.9,25.3,56.5,24.7,57,24.1z M49,19c2.7,0,5.4,0.4,7.1,3.1
	c-3.1,3.7-7.7,5.9-12.6,5.9c-1.1,0-2.2-0.1-3.2-0.3C41.3,19.8,45.1,19,49,19z M49,45c-4.2,0-9-5.5-9-12.8c0-0.9,0-1.7,0.1-2.5
	c1.1,0.2,2.3,0.3,3.4,0.3c3.6,0,7.1-1,10-2.9c1.4,0.9,2.8,1.6,4.4,2.1C58,30,58,30.9,58,31.9C58,39.3,53.2,45,49,45z"/>
<g>
	<path class="st8" d="M49,42c-3.8,0-5.6-3.8-6-5.8c-0.1-0.3,0-0.6,0.2-0.8c0.2-0.2,0.5-0.4,0.8-0.4h10c0.3,0,0.6,0.1,0.8,0.4
		c0.2,0.2,0.3,0.5,0.2,0.8C54.6,38.2,52.8,42,49,42z M45.4,37c0.5,1.2,1.6,3,3.6,3c2,0,3.1-1.8,3.6-3H45.4z"/>
</g>
<path class="st8" d="M100,50c0-27.6-22.4-50-50-50S0,22.4,0,50c0,27.2,21.8,49.4,48.9,50c0,0,0.1,0,0.1,0c0,0,0.1,0,0.1,0
	c0.3,0,0.6,0,0.9,0c4.9,0,9.6-1,14-2c0,0,0,0,0,0c0.2,0,0.3-0.1,0.5-0.1C85,91.7,100,72.6,100,50z M48,97.9
	c-5.3-0.2-10.3-1.3-15-3.1c0,0,0-0.1,0-0.1V71c0-0.6-0.4-1-1-1s-1,0.4-1,1v4h-6.8C25.3,58,34.5,54.2,48,54.1V97.9z M24,78.8
	c0-0.6,0-0.8,0.1-1.8H31v17.1c-2.4-1.1-5-2.3-7-3.7V78.8z M50,54h16v8h-4c-0.6,0-1,0.4-1,1s0.4,1,1,1h1v32.2
	c-4.1,1.2-8.5,1.8-13,1.8V54z M74,54v2c0,0.6,0.4,1,1,1s1-0.4,1-1V40c0,0,0-0.1,0-0.1V39h-4c-0.6,0-1-0.4-1-1s0.4-1,1-1h4v-0.9
	c0,0,0-0.1,0-0.1v-4c0-2.2,1.8-4,4-4s4,1.8,4,4v26c0,2.2-1.8,4-4,4H68v-8H74z M65,95.6V64h15.4c0,0,0.1,0,0.1,0c3-0.3,5.4-2.8,5.4-6
	V32c0-3.3-2.7-6-6-6s-6,2.7-6,6v3h-2c-1.7,0-3,1.3-3,3s1.3,3,3,3h2v11H49c-13.4,0-25.9,3-26.9,24c0,0,0,0,0,0.1c0,0,0,0,0,0
	c0,0.9-0.1,1.8-0.1,2.8V89C10,80.2,2,66,2,50C2,23.5,23.5,2,50,2s48,21.5,48,48C98,71.2,84.1,89.3,65,95.6z"/>
<g>
	<circle class="st8" cx="53" cy="62" r="1"/>
</g>
<g>
	<circle class="st8" cx="53" cy="71" r="1"/>
</g>
<g>
	<circle class="st8" cx="53" cy="80" r="1"/>
</g>
<g>
	<circle class="st8" cx="53" cy="89" r="1"/>
</g>
</svg>
