<?xml version="1.0" encoding="utf-8"?>
<!-- Generator: Adobe Illustrator 21.1.0, SVG Export Plug-In . SVG Version: 6.00 Build 0)  -->
<svg version="1.1" id="Layer_1" xmlns="http://www.w3.org/2000/svg" xmlns:xlink="http://www.w3.org/1999/xlink" x="0px" y="0px"
	 viewBox="0 0 50 50" style="enable-background:new 0 0 50 50;" xml:space="preserve">
<style type="text/css">
	.st0{fill:#757575;}
	.st1{fill:none;stroke:#757575;stroke-linecap:round;stroke-linejoin:round;stroke-miterlimit:10;}
	.st2{fill:none;stroke:#757575;stroke-miterlimit:10;}
	.st3{fill:#333333;}
	.st4{fill:none;stroke:#333333;stroke-width:2;stroke-miterlimit:10;}
	.st5{fill:none;stroke:#333333;stroke-width:2;stroke-linecap:round;stroke-miterlimit:10;}
	.st6{fill:none;stroke:#757575;stroke-width:1.5;stroke-linecap:round;stroke-miterlimit:10;}
</style>
<g>
	<g>
		<path class="st0" d="M25,1.5C38,1.5,48.5,12,48.5,25S38,48.5,25,48.5S1.5,38,1.5,25S12,1.5,25,1.5 M25,0C11.2,0,0,11.2,0,25
			s11.2,25,25,25s25-11.2,25-25S38.8,0,25,0L25,0z"/>
	</g>
</g>
<g>
	<path class="st6" d="M30,18c0-2.8-2.2-5-5-5s-5,2.2-5,5c0,1.6,0.8,3,2,4c1.7,1.5,4.7,4.7,6.3,6.2c1,1,1.8,2.3,1.8,3.8
		c0,2.8-2.2,5-5,5s-5-2.2-5-5"/>
	<line class="st6" x1="25" y1="13" x2="25" y2="10.6"/>
	<line class="st6" x1="25" y1="39.4" x2="25" y2="37"/>
</g>
</svg>
